<svg width="20" height="23" viewBox="0 0 20 23" fill="none" xmlns="http://www.w3.org/2000/svg">
<g clip-path="url(#clip0_755_2152)">
<path d="M9.78369 22.0903C10.1987 22.0903 10.6968 21.9048 11.0679 21.5093L18.3091 13.7358C18.8511 13.1548 19.0904 12.6763 19.0904 12.0708C19.0904 11.1577 18.4019 10.4741 17.4986 10.4741L14.2271 10.4741L14.2271 3.16943C14.2271 1.49953 13.2652 0.522932 11.6099 0.522932H8.01611C6.36084 0.522932 5.38916 1.49953 5.38916 3.16943V10.4741H2.09814C1.19482 10.4741 0.477051 11.1577 0.477051 12.0805C0.477051 12.6665 0.70166 13.1011 1.29248 13.7358L8.49951 21.519C8.87549 21.9146 9.34424 22.0903 9.78369 22.0903Z" fill="currentColor"/>
</g>
<defs>
<clipPath id="clip0_755_2152">
<rect width="21.5674" height="18.6133" fill="currentColor" transform="matrix(0 -1 1 0 0.477051 22.0903)"/>
</clipPath>
</defs>
</svg>
