<svg width="184" height="90" viewBox="0 0 184 90" fill="none" xmlns="http://www.w3.org/2000/svg">
<path d="M43.8018 45.2859L73.6921 27.8766C76.9489 25.8509 79.2943 22.6248 80.2303 18.8836C81.1663 15.1423 80.6192 11.1805 78.7052 7.83939C76.7911 4.49831 73.6608 2.04115 69.9791 0.98969C66.2974 -0.0617678 62.3542 0.375302 58.9869 2.20809L7.34363 32.2712L43.8018 45.2859Z" fill="#EA4335"/>
<path d="M66.3242 90.0001C69.5592 89.9993 72.7036 88.9229 75.2704 86.9377C77.8372 84.9524 79.6832 82.1691 80.5224 79.0188C81.3616 75.8685 81.1472 72.5271 79.9123 69.5121C78.6775 66.4972 76.4912 63.977 73.6921 62.3418L22.0869 32.271C20.4144 31.2949 18.5676 30.6605 16.652 30.404C14.7364 30.1476 12.7895 30.2741 10.9223 30.7763C7.15151 31.7906 3.93472 34.2739 1.97965 37.6798C0.0245695 41.0857 -0.508652 45.1352 0.497284 48.9375C1.50322 52.7398 3.96591 55.9835 7.3436 57.9549L58.9869 88.0103C61.2153 89.3157 63.7471 90.0022 66.3242 90.0001Z" fill="#4285F4"/>
<path d="M117.693 90.0001C120.27 90.0012 122.802 89.3146 125.031 88.0103L176.666 57.9549L140.673 44.6635L110.325 62.3341C107.526 63.9693 105.34 66.4895 104.105 69.5045C102.87 72.5194 102.656 75.8608 103.495 79.0111C104.334 82.1614 106.18 84.9447 108.747 86.93C111.314 88.9153 114.458 89.9917 117.693 89.9925V90.0001Z" fill="#FBBC04"/>
<path d="M169.298 59.9369C172.533 59.9361 175.678 58.8597 178.245 56.8745C180.811 54.8892 182.657 52.1059 183.497 48.9556C184.336 45.8053 184.121 42.4639 182.887 39.4489C181.652 36.434 179.465 33.9137 176.666 32.2786L125.031 2.20783C123.357 1.16662 121.492 0.474606 119.549 0.172748C117.605 -0.12911 115.62 -0.0346772 113.713 0.450457C111.806 0.93559 110.015 1.80157 108.446 2.99713C106.876 4.1927 105.561 5.69355 104.577 7.41087C103.593 9.12819 102.961 11.0271 102.718 12.9951C102.475 14.9632 102.626 16.9604 103.162 18.8686C103.698 20.7768 104.608 22.5572 105.838 24.1044C107.069 25.6517 108.595 26.9343 110.325 27.8763L161.961 57.9394C164.19 59.2434 166.721 59.9323 169.298 59.9369Z" fill="#0F9D58"/>
</svg>
