<svg width="22" height="22" viewBox="0 0 22 22" fill="none" xmlns="http://www.w3.org/2000/svg">
<g clip-path="url(#clip0_756_2160)">
<path d="M13.0816 22C13.9541 22 14.551 21.3769 14.9286 20.4375L21.7448 3.42164C21.9133 3.01279 22 2.638 22 2.32163C22 1.5234 21.4643 1.01721 20.6275 1.01721C20.2908 1.01721 19.898 1.09996 19.4745 1.25571L1.59184 7.7827C0.668367 8.11368 0 8.68315 0 9.52031C0 10.5084 0.749999 10.9269 1.79082 11.2336L6.69387 12.6743C7.5102 12.9177 8.0153 12.9128 8.61734 12.3968L20.2601 2.23402C20.4183 2.09774 20.6173 2.11234 20.7347 2.22429C20.847 2.33624 20.8673 2.52606 20.7194 2.67695L10.0918 13.7743C9.58163 14.3048 9.53571 14.8646 9.77551 15.6142L11.2704 20.238C11.5969 21.2552 12.0408 22 13.0816 22Z" fill="currentColor"/>
</g>
<defs>
<clipPath id="clip0_756_2160">
<rect width="22" height="22" fill="currentColor"/>
</clipPath>
</defs>
</svg>
