<svg width="20" height="23" viewBox="0 0 20 23" fill="none" xmlns="http://www.w3.org/2000/svg">
<g clip-path="url(#clip0_755_2152)">
<path d="M9.78369 0.522949C9.36865 0.522949 8.87063 0.708496 8.49953 1.104L1.25833 8.87744C0.716331 9.4585 0.477032 9.93701 0.477032 10.5424C0.477032 11.4555 1.16553 12.1391 2.06883 12.1391L5.34033 12.1391L5.34033 19.4438C5.34033 21.1137 6.30223 22.0903 7.95753 22.0903H11.5513C13.2065 22.0903 14.1782 21.1137 14.1782 19.4438V12.1391H17.4692C18.3726 12.1391 19.0903 11.4555 19.0903 10.5327C19.0903 9.94678 18.8657 9.51221 18.2749 8.87744L11.0679 1.09424C10.6919 0.69873 10.2231 0.522949 9.78369 0.522949Z" fill="currentColor"/>
</g>
<defs>
<clipPath id="clip0_755_2152">
<rect width="21.5674" height="18.6133" fill="currentColor" transform="matrix(0 1 -1 0 19.0903 0.522949)"/>
</clipPath>
</defs>
</svg>
